<?xml version="1.0" encoding="UTF-8"?>
<svg width="53px" height="53px" viewBox="0 0 53 53" version="1.1" xmlns="http://www.w3.org/2000/svg" xmlns:xlink="http://www.w3.org/1999/xlink">
    <title>Group 2</title>
    <defs>
        <filter x="-34.3%" y="-34.3%" width="168.6%" height="168.6%" filterUnits="objectBoundingBox" id="filter-1">
            <feOffset dx="0" dy="2" in="SourceAlpha" result="shadowOffsetOuter1"></feOffset>
            <feGaussianBlur stdDeviation="2" in="shadowOffsetOuter1" result="shadowBlurOuter1"></feGaussianBlur>
            <feColorMatrix values="0 0 0 0 0   0 0 0 0 0   0 0 0 0 0  0 0 0 0.5 0" type="matrix" in="shadowBlurOuter1" result="shadowMatrixOuter1"></feColorMatrix>
            <feMerge>
                <feMergeNode in="shadowMatrixOuter1"></feMergeNode>
                <feMergeNode in="SourceGraphic"></feMergeNode>
            </feMerge>
        </filter>
    </defs>
    <g id="Page-1" stroke="none" stroke-width="1" fill="none" fill-rule="evenodd">
        <g id="History-Page" transform="translate(-19.000000, -159.000000)">
            <g id="Group-2" transform="translate(20.000000, 161.000000)">
                <circle id="Oval" fill="#A6B1E1" cx="25" cy="25" r="25"></circle>
                <g id="Dog-paw-cuate" filter="url(#filter-1)" transform="translate(8.000000, 7.000000)" fill-rule="nonzero">
                    <g id="freepik--Table--inject-30" transform="translate(0.000000, 33.227848)" fill="#263238">
                        <polygon id="Path" points="0 0.583333333 4.37440971 0.303333333 8.74960648 0.198333333 17.5 0 26.2503935 0.198333333 30.6255903 0.303333333 35 0.583333333 30.6255903 0.875 26.2503935 0.98 17.5 1.16666667 8.74960648 0.968333333 4.37440971 0.875"></polygon>
                    </g>
                    <g id="freepik--Dog--inject-30" transform="translate(5.202703, 7.531646)">
                        <path d="M5.43843541,26.0816412 L6.48812699,22.3860736 C6.48812699,22.3860736 3.68868636,21.3522144 2.98862889,19.8559927 C2.28857142,18.359771 2.86629641,10.658728 3.56635388,8.42355943 C4.26641135,6.18839084 7.1360945,3.32590882 11.00259,2.32870539 C14.8690856,1.33150196 18.8587028,3.28675379 20.3456343,5.26283277 C21.8325659,7.23891175 24.3786599,13.7827989 24.5365082,15.6480775 C24.6943566,17.5133561 21.8594001,19.7260314 21.8594001,19.7260314 L23.6880733,26.0824743 L5.43843541,26.0816412 Z" id="Path" fill="#424874"></path>
                        <g id="Group" opacity="0.1" transform="translate(6.488127, 19.725198)" fill="#000000">
                            <path d="M0,2.66087532 C0.429347534,2.71335971 0.84212099,2.83748946 1.26278686,2.93412738 C1.51297651,2.98744486 1.76790161,3.01743594 2.02203747,3.07658502 C1.32671545,3.20321402 0.62192253,2.98411252 0.00078924179,2.66004223 L0,2.66087532 Z" id="Path"></path>
                            <path d="M13.624681,1.13299638 C13.9743151,0.86724208 14.3570974,0.665635372 14.7296195,0.439036096 C14.9506072,0.300743891 15.1534424,0.145789975 15.3736408,0 C14.9577104,0.599821612 14.2868549,0.928057327 13.6270487,1.13299638 L13.624681,1.13299638 Z" id="Path"></path>
                        </g>
                        <path d="M19.8910311,26.0816412 C19.8910311,26.0816412 18.500387,23.0050562 17.4767404,22.3860736 C16.4530938,21.767091 11.6253018,22.0869959 10.6261217,23.5407302 C9.8179381,24.716214 9.36333483,26.0816412 9.36333483,26.0816412 L19.8910311,26.0816412 Z" id="Path" fill="#FFFFFF" opacity="0.45"></path>
                        <path d="M14.0230184,21.8487334 C10.1060114,22.3652465 8.0389871,18.9021098 8.28759827,16.8802111 C8.58829939,14.435938 11.8920655,13.4195736 11.5676871,10.6737236 C11.3719552,9.02254796 10.1644152,8.68848064 10.0578676,7.78874822 C9.89370531,6.40332692 11.1288687,3.97155013 11.8960117,3.87324604 C12.6631547,3.77494194 14.4263209,5.80933691 14.5904832,7.19475821 C14.6970308,8.09449063 13.603931,8.73180109 13.8012414,10.3829767 C14.126409,13.1279937 17.5659247,13.2562888 18.4269875,15.5481072 C19.1388836,17.4392115 17.9408146,21.3322204 14.0230184,21.8487334 Z" id="Path" fill="#FFFFFF" opacity="0.45"></path>
                        <path d="M8.46833464,12.0499809 C6.84249655,12.2640839 7.15582554,14.9307908 8.78403135,14.7158548 C10.4122372,14.5009187 10.0957512,11.8350448 8.46833464,12.0499809 Z" id="Path" fill="#263238"></path>
                        <path d="M7.0926862,10.8953243 C7.13846222,10.2130272 8.00031426,9.77815657 8.50858597,10.2288559 C8.27181343,10.2755087 8.05240421,10.2988351 7.83694121,10.395473 C7.55991734,10.512938 7.34287585,10.6945507 7.0926862,10.8903258 L7.0926862,10.8953243 Z" id="Path" fill="#263238"></path>
                        <path d="M18.1917935,9.42826063 C17.9037202,9.30413088 17.6503736,9.18416656 17.3551972,9.14167919 C17.1231601,9.10252417 16.9021724,9.13668068 16.6646106,9.1525093 C17.0552853,8.58017952 17.9850121,8.77845388 18.1917935,9.42826063 Z" id="Path" fill="#263238"></path>
                        <path d="M17.1002721,10.911986 C15.4752232,11.126089 15.787763,13.7927959 17.4159688,13.5778599 C19.0441746,13.3629238 18.7276887,10.69705 17.1002721,10.911986 Z" id="Path" fill="#263238"></path>
                        <path d="M14.517873,16.5494761 C14.4468412,17.0668222 14.3276657,17.8132669 13.5455271,17.9165695 C12.7633885,18.0198721 12.4737367,17.3267449 12.2827402,16.8443884 C12.2827402,16.8443884 12.6884105,16.99601 12.931497,16.7777415 C13.1745834,16.5594731 13.2045746,15.0457566 13.2045746,15.0457566 C13.2045746,15.0457566 13.5857784,16.5053226 13.8722732,16.6544449 C14.1587679,16.8035672 14.517873,16.5494761 14.517873,16.5494761 Z" id="Path" fill="#FF9BBC"></path>
                        <path d="M13.4847555,17.3983903 C13.2868171,16.6503721 13.1950563,15.8755063 13.212467,15.0990741 C13.4101202,15.8471528 13.5018757,16.6219736 13.4847555,17.3983903 L13.4847555,17.3983903 Z" id="Path" fill="#263238"></path>
                        <path d="M14.8714533,13.773635 C14.8951305,13.9752417 14.7222866,14.2101718 14.6488871,14.3143075 C14.4949849,14.5275774 14.1642926,14.6383778 14.0537988,14.5284105 C13.9251524,14.4017815 14.2692618,14.2851495 14.224275,14.1526889 C14.1911269,14.0535517 14.0664267,13.9027632 13.8959504,13.9594131 C13.7254742,14.0160629 13.8509636,14.5150811 13.7917705,14.6825313 C13.699898,14.9305429 13.4889567,15.1073981 13.2393013,15.1457269 L13.2219379,15.1457269 C12.9706922,15.1738972 12.7244706,15.0574672 12.5771274,14.8408176 C12.4808399,14.6941945 12.4879431,14.1743491 12.3079959,14.1668514 C12.1280488,14.1593536 12.0435999,14.3334685 12.034129,14.4392703 C12.0215012,14.5792287 12.3821847,14.6058875 12.2874757,14.7591752 C12.2085515,14.8941351 11.8589174,14.8724748 11.6608177,14.7058577 C11.5653194,14.6225492 11.345121,14.4409365 11.319076,14.2401629 C11.2867171,13.9710763 11.7657868,13.3404305 12.9891116,13.179645 L13.0064749,13.179645 C14.2290105,13.0180264 14.8398836,13.5045483 14.8714533,13.773635 Z" id="Path" fill="#263238"></path>
                        <path d="M11.129658,15.6564084 C11.2248424,15.8013798 11.3326476,15.9366495 11.4516686,16.0604549 C11.6773918,16.3020497 11.916532,16.5403122 12.2132869,16.6719397 C12.4121759,16.7552482 12.637899,16.8385568 12.8249493,16.7269233 C12.9630666,16.5927965 12.9930578,16.2928857 13.0412016,16.0887798 C13.1027624,15.7480478 13.1485385,15.3989849 13.2053639,15.0482559 C13.2606108,15.5097853 13.3150685,16.5628055 12.9875331,16.908536 C12.7310295,17.1159743 12.370346,17.0126717 12.1193672,16.8777118 C11.8036704,16.7110947 11.5668979,16.4278456 11.3687982,16.1279348 C11.2684829,15.9841093 11.1887086,15.8255216 11.1320257,15.6572414 L11.129658,15.6564084 Z" id="Path" fill="#263238"></path>
                        <path d="M15.3599939,15.0990741 C15.3434077,15.2775372 15.3019186,15.4524319 15.2368722,15.6180864 C15.115329,15.9563192 14.948799,16.295385 14.684403,16.5344806 C14.4744647,16.7302557 14.1485078,16.9243646 13.8525421,16.7894047 C13.4579212,16.5394791 13.2614,15.5047868 13.2069423,15.039925 C13.3442704,15.3656615 13.4697599,15.691398 13.6086664,16.0054712 C13.7025862,16.1912493 13.8020307,16.4744984 13.9677714,16.567804 C14.1737635,16.6244538 14.3742309,16.4886608 14.5470749,16.3562002 C14.805157,16.1512612 14.9803686,15.8563489 15.1429525,15.565602 C15.2299083,15.4161474 15.3031153,15.2582523 15.3615724,15.0940756 L15.3599939,15.0990741 Z" id="Path" fill="#263238"></path>
                        <path d="M15.2715989,18.8829488 C14.876978,19.0920533 14.4539444,19.2620027 14.0411709,19.2994916 C14.0080228,19.2994916 13.9961841,19.3628061 14.0245968,19.3828001 C14.103521,19.4419492 14.3205625,19.6077332 14.3544999,19.6327258 C14.3292442,19.6377243 14.3039884,19.6427228 14.2755757,19.6460552 C14.1905158,19.6582373 14.1048851,19.6654683 14.0190721,19.6677154 C13.8473068,19.6720795 13.6755362,19.6592482 13.506065,19.6293935 C13.3363369,19.5994775 13.1699808,19.5511812 13.0096319,19.4852697 C12.8462588,19.4194559 12.6939352,19.3294826 12.5360868,19.2461741 C12.5289836,19.2461741 12.5226697,19.2586704 12.5289836,19.264502 C12.6681757,19.3953766 12.8247961,19.5040001 12.9938471,19.5869061 C13.1506629,19.6681502 13.315226,19.7315441 13.4847555,19.7760165 C13.654713,19.8204814 13.828987,19.843965 14.0040766,19.8459957 C14.0952593,19.8465246 14.1864069,19.8420755 14.2771542,19.8326663 C14.3682354,19.8303771 14.4579233,19.808552 14.540761,19.7685187 C14.5960079,19.7368615 14.5731199,19.6360581 14.5289223,19.6168972 C14.5020881,19.605234 14.1934946,19.4019611 14.1485078,19.3711369 C14.3289316,19.3497515 14.5065474,19.3072815 14.678089,19.2445079 C14.8917877,19.163091 15.0947022,19.0530577 15.281859,18.9171053 C15.2976438,18.9087744 15.2865945,18.8737848 15.2715989,18.8829488 Z" id="Path" fill="#263238"></path>
                        <path d="M5.43843541,26.0816412 L6.48812699,22.3860736 C6.48812699,22.3860736 3.68868636,21.3522144 2.98862889,19.8559927 C2.43142419,18.6646804 2.68398156,13.5428703 3.16305133,10.3754789 C3.14647725,11.6251073 3.09438729,17.8790807 4.09119967,19.3661384 C5.08801205,20.8531962 7.05717032,21.7820866 9.62930931,22.3860736 C9.62930931,22.3860736 8.50858597,23.5957139 8.50858597,24.5654255 C8.50858597,25.2193976 9.3949045,26.0816412 13.09487,26.0816412 L5.43843541,26.0816412 Z" id="Path" fill="#000000" opacity="0.1"></path>
                        <path d="M21.9430597,20.0151121 C21.9430597,20.0151121 22.3053217,23.7156782 22.1656259,24.6020812 C22.0259301,25.4884843 19.0512778,26.0816412 19.0512778,26.0816412 L23.6880733,26.0816412 L21.9430597,20.0151121 Z" id="Path" fill="#000000" opacity="0.1"></path>
                        <path d="M8.85427387,3.11097274 C8.52673853,3.21510843 8.01925606,2.96601585 7.78327276,2.69859538 C7.54728947,2.43117491 7.11794194,1.48812204 7.11794194,1.48812204 C7.11794194,1.48812204 6.9869278,2.35619721 7.05717032,2.76274297 C7.09289681,2.99454489 7.17641941,3.21523537 7.30183527,3.40921737 C6.97241513,3.2252821 6.68564075,2.96667399 6.46208201,2.65194259 C6.14638529,2.1720853 5.95459954,1.85801204 5.51499186,1.77470348 C5.07538418,1.69139492 3.79996945,3.62165419 2.79447541,4.2681286 C1.78898137,4.914603 0.742446759,5.24700414 0.362032216,5.87515067 C-0.0183823262,6.50329719 0.0123981036,9.45741862 0.624849732,11.2310578 C1.23730136,13.004697 2.88129201,14.8133258 3.61607612,14.5367414 C4.35086022,14.2601569 3.90888482,12.2307605 5.02881892,9.68235173 C5.88909247,7.72460063 7.08084757,6.85402621 7.08084757,6.85402621 L8.85427387,3.11097274 Z" id="Path" fill="#424874"></path>
                        <path d="M6.85433518,7.04646898 C6.46681746,7.39969726 5.65942311,8.24944454 5.0303974,9.68235173 C3.91125254,12.2307605 4.35322795,14.2601569 3.61844384,14.5367414 C2.88365973,14.8133258 1.23887984,13.0038639 0.626428216,11.2285585 C0.98553323,12.0616441 2.67135369,13.7028227 3.18120389,13.29711 C3.57582478,12.9838698 3.86468728,10.8220128 4.48503133,9.6032086 C5.09037978,8.4252256 6.74778754,7.12644519 6.85433518,7.04646898 Z" id="Path" fill="#000000" opacity="0.1"></path>
                        <path d="M8.85427387,3.11097274 C8.45965298,3.21677461 7.9821617,2.97184745 7.71855494,2.6569411 C7.59233402,2.47844595 7.47813944,2.29081822 7.37681324,2.09544143 C7.27342257,1.90216557 7.17476734,1.70639046 7.07926909,1.5081161 L7.15819327,1.49561981 C7.08952923,2.11793474 6.98377083,2.82855673 7.35234675,3.36673001 L7.51887676,3.609991 L7.26947636,3.47253188 C7.03271457,3.3417843 6.81523631,3.17536766 6.62387658,2.97851213 C6.25293293,2.60445671 6.05799021,1.94965145 5.49210385,1.86634289 C5.29795037,1.90133249 5.14641595,2.0854444 4.99724925,2.22040426 C4.44477999,2.78606937 3.93729752,3.42837834 3.35010163,3.96988396 C2.57427695,4.70966395 1.49854039,4.98208293 0.696670735,5.66021459 C0.510388607,5.81579679 0.385275696,6.03867191 0.345458139,6.28586185 C0.253134729,6.81429248 0.21476865,7.35165085 0.231018079,7.88871849 C0.253906091,8.96589814 0.369924634,10.0622387 0.687989075,11.0877671 C0.855659907,11.5966946 1.08259574,12.0816563 1.36358005,12.5315044 C1.73531293,13.1529862 2.82999129,14.640044 3.58845265,14.4684283 C3.6800047,14.4367711 3.75261494,14.32847 3.80628339,14.2143372 C3.96413174,13.8494458 4.03200654,13.4429 4.11171996,13.0480174 C4.42189198,11.4651549 4.67444936,9.74233389 5.68467885,8.45854902 C5.0398683,9.32412493 4.7375887,10.4004715 4.51423327,11.4576571 C4.4053179,11.9916649 4.32323676,12.5306713 4.23010623,13.0696777 C4.15118205,13.4753903 4.09277816,13.8919331 3.92940511,14.2751525 C3.72420224,14.8066611 3.20882735,14.6642034 2.83630523,14.4276071 C2.15834653,13.9869049 1.63823619,13.3304334 1.19547155,12.644804 C0.295735906,11.2577165 0.0463355005,9.53739484 0.00213796029,7.89038466 C-0.00338673224,7.61463334 0.00213796029,7.33804893 0.0147658289,7.05729909 C0.0487032259,6.63159236 0.0629095781,6.19588861 0.265744718,5.80183913 C0.493835595,5.43528148 0.869514687,5.21034838 1.21283487,5.00957476 C1.78819213,4.68550447 2.37933423,4.42641486 2.91049396,4.04402858 C3.21613122,3.80008912 3.50299574,3.53099515 3.76839978,3.23926792 C4.13381873,2.85521547 4.47871739,2.44533737 4.86386738,2.06878269 C5.01698029,1.92715814 5.16851472,1.7738704 5.36977137,1.69472727 C5.43085127,1.6713574 5.49727453,1.66844814 5.55997864,1.68639641 L5.61127936,1.69889269 C6.16374861,1.84468267 6.36500527,2.46949685 6.72489952,2.86521249 C6.90212457,3.05445111 7.10443895,3.21552811 7.32551253,3.34340361 L7.24264214,3.44920548 C7.15088877,3.30475785 7.08136519,3.14589601 7.03665003,2.97851213 C6.89458651,2.43950577 7.0208652,1.87217449 7.09189696,1.33316813 C7.2892074,1.77220422 7.48651785,2.22540278 7.75012461,2.62278459 C7.99952501,2.9343586 8.45176056,3.19594747 8.84795994,3.1076404 L8.85427387,3.11097274 Z" id="Path" fill="#263238"></path>
                        <path d="M14.5044558,2.16542061 C14.8454083,2.19374552 15.2936976,1.83218639 15.4673308,1.52061238 C15.640964,1.20903838 15.8714226,0.187675467 15.8714226,0.187675467 C15.8714226,0.187675467 16.1752807,1.00659858 16.1871193,1.41897594 C16.1990602,1.65338933 16.1621512,1.88771475 16.0789932,2.10543845 C16.3632166,1.85125486 16.5909134,1.53411227 16.7459025,1.17654804 C16.9566301,0.63670859 17.080541,0.285979564 17.4909468,0.106033081 C17.9013525,-0.0739134029 19.5429754,1.52227855 20.6542279,1.92799123 C21.7654803,2.3337039 22.8641049,2.4203448 23.3558025,2.94852105 C23.8475002,3.4766973 24.4268036,6.37083658 24.1900311,8.24111369 C23.9532586,10.1113908 22.7070458,12.2499215 21.9335888,12.1449527 C21.1601319,12.0399839 21.1806521,9.95810305 19.5705989,7.72126829 C18.333857,6.00261276 16.9929352,5.42111903 16.9929352,5.42111903 L14.5044558,2.16542061 Z" id="Path" fill="#424874"></path>
                        <path d="M24.1900311,8.2402806 C23.9532586,10.1105577 22.710992,12.2499215 21.9367458,12.1457858 C21.2351098,12.050814 21.1877553,10.32716 19.9810046,8.33691853 C19.980796,8.3349809 19.980796,8.33302456 19.9810046,8.33108693 C20.6455462,8.95923345 21.4852995,11.193569 22.0803878,11.2677136 C22.6754761,11.3418582 23.5941535,9.6090402 23.8561818,8.43522263 C24.0140302,7.72793298 24.0890081,5.40029189 24.0929543,5.3478075 C24.2342286,6.31335368 24.2957895,7.38220246 24.1900311,8.2402806 Z" id="Path" fill="#000000" opacity="0.1"></path>
                        <path d="M14.5044558,2.16542061 C14.9077584,2.16542061 15.2992223,1.80469456 15.4791695,1.44396851 C15.6575381,0.995768471 15.7561933,0.509246497 15.8603732,0.0360538926 C16.0387419,0.545902263 16.2770929,1.07241234 16.2471017,1.63057968 C16.2381751,1.80409548 16.2024517,1.97490629 16.1413433,2.13626262 L16.0395311,2.05295406 C16.2292187,1.87781474 16.3942556,1.67499634 16.5296503,1.45063319 C16.8011495,0.984105273 16.8674458,0.327633843 17.3804529,0.0602133742 C17.4511635,0.0138433523 17.5343749,-0.00665124542 17.6172255,0.00189738416 C17.8295315,0.0335546359 18.0118464,0.14935353 18.1878473,0.251823056 C18.6424505,0.532572893 19.0599595,0.855810095 19.4948317,1.14822313 C19.8130602,1.37375072 20.1479942,1.57183351 20.4963795,1.74054697 C21.0922571,1.99047264 21.722072,2.11376931 22.3495192,2.30121356 C22.7299338,2.41867863 23.138761,2.55113923 23.4394621,2.86104707 C23.7172753,3.19927981 23.8190874,3.62165419 23.9390522,4.02736687 C24.010084,4.29478734 24.0684879,4.56470706 24.1189993,4.83545987 C24.4094403,6.45414514 24.5136202,8.19112855 23.9161642,9.75066475 C23.6233555,10.5204358 23.2476764,11.2793768 22.6754761,11.8625367 C22.3597794,12.1732776 21.8862343,12.4373657 21.5760623,11.9608408 C21.3392897,11.622608 21.1956477,11.2302247 21.0385886,10.8511708 C20.8381212,10.3454878 20.6494924,9.83730564 20.4340294,9.34078664 C20.0046819,8.35524641 19.4869393,7.37220544 18.6827019,6.67491281 C19.9304931,7.70127424 20.5247922,9.32329185 21.1490825,10.8036849 C21.3069308,11.1477492 21.5957933,11.9958304 21.9485844,12.0724742 C22.7220414,12.0724742 23.4962876,10.3588172 23.7291139,9.6781863 C23.9125487,9.17531618 24.0360903,8.65034004 24.0969006,8.11531777 C24.199502,7.04147047 24.0913759,5.94429677 23.8948547,4.88711118 C23.8020971,4.35862438 23.6557725,3.8421976 23.4584039,3.34673595 C23.3694116,3.11444129 23.2021403,2.92511767 22.9888051,2.81522736 C22.0677599,2.3337039 20.9620322,2.3103775 20.0544041,1.76304028 C19.3709207,1.36815772 18.7458412,0.85497701 18.0907705,0.430103368 C17.9179266,0.330966185 17.733244,0.186009296 17.5383013,0.196006322 C17.0024061,0.405110801 16.9447915,1.08824097 16.6575074,1.53727409 C16.5106773,1.77283185 16.3319959,1.98445386 16.127137,2.16542061 L15.911674,2.3570303 L16.0245355,2.08044589 C16.2755144,1.47062725 16.0284817,0.802492619 15.8359067,0.209335692 L15.9148309,0.203504093 C15.862741,0.41844017 15.8051263,0.631710076 15.7435655,0.844146897 C15.6841588,1.05788939 15.6105776,1.26695474 15.523367,1.46979416 C15.3300028,1.83551873 14.9148616,2.18458158 14.5060343,2.16958604 L14.5044558,2.16542061 Z" id="Path" fill="#263238"></path>
                        <path d="M1.6177159,25.6850925 C1.53326703,26.274084 2.12914458,26.9730428 2.52297624,27.043022 C2.91680789,27.1130011 3.21829825,26.8072587 3.21829825,26.8072587 C3.21829825,26.8072587 3.57266782,27.3904186 4.24431258,27.4578986 C4.6261742,27.5068229 5.00583867,27.3504 5.25533131,27.0413558 C5.25533131,27.0413558 5.64995221,27.3595945 6.34448498,27.3595945 C7.03901776,27.3595945 7.37918097,26.6406416 7.37918097,26.6406416 C7.37918097,26.6406416 7.85272604,26.7797669 8.19288925,26.4890201 C8.53305246,26.1982732 8.61276589,25.4776542 8.37678259,24.9236523 C8.1407993,24.3696504 6.74778754,22.6418309 5.06196707,22.6193376 C3.37614661,22.5968443 1.74636232,24.7711976 1.6177159,25.6850925 Z" id="Path" fill="#424874"></path>
                        <path d="M3.35404784,25.2318939 C3.22776915,25.7600702 3.15279118,26.284081 3.24039702,26.8255866 C2.93259273,26.3540602 3.01940932,25.6592668 3.35404784,25.2318939 Z" id="Path" fill="#263238"></path>
                        <path d="M7.06979819,24.9653065 C7.47704695,25.3668538 7.67356816,26.0958037 7.36497462,26.6181483 C7.44389879,26.0349884 7.28131499,25.4943159 7.06979819,24.9653065 Z" id="Path" fill="#263238"></path>
                        <path d="M5.22060467,25.3077047 C5.32162762,25.8825338 5.3042643,26.4565297 5.26243449,27.0388565 C5.08643357,26.4848546 5.10458613,25.8725367 5.22060467,25.3077047 Z" id="Path" fill="#263238"></path>
                        <path d="M7.30972769,26.7572736 C7.18029204,26.9605465 6.85828139,27.3612606 6.33896029,27.3612606 C5.64363827,27.3612606 5.24980662,27.043022 5.24980662,27.043022 C5.00056174,27.3519284 4.62119261,27.5083518 4.23957713,27.4595647 C3.57030009,27.3904186 3.2135628,26.8080918 3.2135628,26.8080918 C3.2135628,26.8080918 2.91207244,27.1130011 2.51824079,27.043855 C2.12440913,26.9747089 1.52774234,26.2757501 1.61298045,25.6867586 C1.69190463,25.1210935 2.34776456,24.073905 3.23329385,23.3624499 C2.37459878,24.2338574 2.12204141,25.0177909 2.21832891,25.5059791 C2.3146164,25.9941672 2.70844806,26.4390349 3.16541905,26.244926 C3.16541905,26.244926 3.72578072,26.9272231 4.28535315,27.043022 C4.62797544,27.1049357 4.97832515,26.9943002 5.2324433,26.7439442 C5.2324433,26.7439442 5.88435702,27.1946435 6.41078129,27.1779818 C6.93720557,27.1613201 7.30972769,26.7572736 7.30972769,26.7572736 Z" id="Path" fill="#000000" opacity="0.1"></path>
                        <path d="M18.8081913,26.0816412 L25.8150799,26.0816412 C25.8150799,26.0816412 25.4938585,20.6907445 25.5072756,20.5332913 C25.5206927,20.3758381 26.5916939,19.9334697 26.478043,18.8154689 C26.3991189,18.0398662 25.8971611,18.1081792 25.8024521,17.9224011 C25.707743,17.736623 25.6816981,16.3836921 25.0282059,16.2045787 C24.3747137,16.0254653 24.3770814,16.4386757 24.1229455,16.3920229 C23.8688097,16.3453701 23.9193212,15.8655128 23.2981879,15.9471552 C22.564193,16.0429601 22.3566224,16.8227282 22.1932494,16.9801813 C22.0298763,17.1376345 21.6684036,16.870214 21.1167236,17.5208539 C20.5902993,18.1423357 21.2871998,19.3769685 21.1956477,19.6468883 C21.1404008,19.8093399 18.8081913,26.0816412 18.8081913,26.0816412 Z" id="Path" fill="#424874"></path>
                        <path d="M23.2287346,24.8078534 C23.0582584,24.3571541 22.9280335,23.8864607 22.923298,23.4332622 C22.923298,23.3974395 22.8656834,23.3799447 22.8443738,23.4091027 C22.7804453,23.4882458 22.5989196,23.7115128 22.5728747,23.7465024 C22.5728747,23.7181774 22.56735,23.6906856 22.5665607,23.6631938 C22.5618242,23.5693994 22.5618242,23.4754053 22.5665607,23.3816109 C22.5761592,23.1947189 22.6025864,23.0092153 22.6454849,22.827609 C22.6892504,22.6455187 22.7503322,22.4685614 22.8277998,22.2994327 C22.9067239,22.1278171 23.0077469,21.9661985 23.1016667,21.7995814 C23.1064021,21.7920836 23.0914065,21.7837527 23.0850926,21.7904174 C22.9455372,21.930434 22.8261486,22.0912579 22.730723,22.2677755 C22.6380365,22.4315414 22.5621058,22.6052438 22.5042106,22.7859547 C22.4462042,22.9670447 22.4083297,23.1546362 22.391349,23.3449551 C22.3826503,23.4438092 22.3794879,23.5431191 22.3818781,23.6423667 C22.3763202,23.7416448 22.3897405,23.8410887 22.4213402,23.9347797 C22.4473852,23.9972611 22.5476189,23.9814325 22.5705069,23.9347797 C22.583924,23.9072879 22.8072795,23.5882161 22.8435846,23.5423964 C22.8489195,23.7393076 22.8753968,23.9349447 22.9225088,24.1255563 C22.9835609,24.3649675 23.0734803,24.5951143 23.1900617,24.8103526 C23.2011111,24.8353452 23.2358378,24.8261813 23.2287346,24.8078534 Z" id="Path" fill="#000000" opacity="0.2"></path>
                        <path d="M24.059017,17.843258 C24.0669094,17.7549509 24.0858512,17.6674769 24.0992683,17.5791699 C24.1456241,17.3683979 24.2169545,17.164631 24.3115743,16.9726836 C24.3398261,16.920773 24.372872,16.8719387 24.4102295,16.8268936 C24.5075916,16.6930123 24.6883944,16.6656428 24.8174783,16.7652453 C24.9262472,16.8384781 25.0181864,16.9363784 25.0866098,17.0518267 C25.2444581,17.3017524 25.3494273,17.5691728 25.3296962,17.8715829 C25.319051,18.1690564 25.1741001,18.4431614 24.9398108,18.6088636 C24.8179744,18.703981 24.6628158,18.7380804 24.5151393,18.7021943 C24.3674628,18.6663082 24.2420485,18.5640283 24.1718785,18.4222525 C24.0753675,18.2474421 24.0357281,18.0440871 24.059017,17.843258 L24.059017,17.843258 Z" id="Path" fill="#FF9BBC"></path>
                        <path d="M22.6012874,18.0665249 C22.4383915,17.7735984 22.4383915,17.410567 22.6012874,17.1176405 C22.7549463,16.8267566 23.0030008,16.6042713 23.2997663,16.4911601 C23.3531662,16.4710021 23.4089326,16.4586686 23.4655071,16.4545043 C23.6060036,16.4308434 23.7412525,16.5211405 23.7812038,16.665275 C23.8290527,16.8190392 23.843088,16.9822887 23.8222444,17.142633 C23.8127735,17.2634304 23.7954102,17.3842278 23.7812038,17.5050252 C23.7536996,17.7256356 23.668728,17.9338593 23.5357496,18.106513 C23.4487857,18.2191148 23.3315772,18.3013042 23.1995326,18.3422762 C22.9632462,18.4141177 22.7119709,18.2982965 22.6012874,18.0665249 L22.6012874,18.0665249 Z" id="Path" fill="#FF9BBC"></path>
                        <path d="M21.725229,19.2153499 C21.4766083,19.0295421 21.3461907,18.7134639 21.3866443,18.3947606 C21.3917616,18.3574324 21.3988761,18.3204398 21.4079538,18.2839603 C21.4489762,18.0571975 21.5524797,17.8482542 21.7054979,17.6833056 C21.7206021,17.6674789 21.7366854,17.6527286 21.7536417,17.639152 C21.9201717,17.5050252 22.0788093,17.521687 22.2161374,17.6899702 C22.3122955,17.8158107 22.3839134,17.9604914 22.4268649,18.115677 C22.5005061,18.3122682 22.5315187,18.5237676 22.5176277,18.7346596 C22.5053059,18.8648123 22.4612564,18.989377 22.3897706,19.0962187 C22.3200995,19.2096889 22.2085721,19.2871523 22.0822791,19.3097927 C21.955986,19.332433 21.8264837,19.2981786 21.725229,19.2153499 L21.725229,19.2153499 Z" id="Path" fill="#FF9BBC"></path>
                        <path d="M24.9792729,20.618266 C24.9792729,20.6507564 24.9705912,20.6832467 24.9650665,20.7257341 C24.8908778,21.0348088 24.6896211,21.2155884 24.3936555,21.2830683 C24.0924483,21.3476961 23.7792301,21.2880715 23.5183863,21.1164512 C23.3458829,21.007673 23.1442042,20.9619926 22.9446075,20.9864899 C22.6453749,21.0310508 22.3411553,20.9561923 22.0914372,20.7765523 C21.8757311,20.6362856 21.7486547,20.3839448 21.7591664,20.1167485 C21.7691497,19.9011079 21.8631201,19.6994101 22.0188269,19.5594143 C22.1046066,19.4782291 22.1991836,19.4080399 22.3005862,19.3503098 C22.521441,19.2256211 22.7214095,19.0635139 22.8925176,18.8704525 C23.0561021,18.6809139 23.2866324,18.5711774 23.5295089,18.5672332 C23.7723854,18.5632891 24.0060047,18.6654882 24.1750355,18.8496254 C24.284333,18.9661528 24.3615413,19.111869 24.3983909,19.2711667 C24.4474766,19.4816948 24.5466266,19.6755271 24.6864642,19.8343325 C24.8644494,20.0243845 24.9695812,20.2771873 24.9816406,20.5441214 C24.982343,20.5688643 24.9815521,20.5936293 24.9792729,20.618266 L24.9792729,20.618266 Z" id="Path" fill="#FF9BBC"></path>
                        <path d="M25.9760853,19.2803306 C25.8971611,19.6502206 25.7101108,19.8851507 25.400728,19.9992834 C25.2629207,20.0594914 25.1062943,20.0476518 24.9780212,19.9673304 C24.849748,19.887009 24.7648195,19.747593 24.7488143,19.5910715 C24.7317176,19.4721627 24.7422814,19.3506487 24.7795947,19.2370102 C24.8656221,18.9654243 25.041623,18.7621514 25.2365657,18.5763733 C25.3078741,18.5096309 25.3875459,18.4535658 25.4733382,18.4097562 C25.5460722,18.3644108 25.6337557,18.3542307 25.714088,18.381805 C25.7944203,18.4093793 25.8596601,18.4720507 25.8932149,18.55388 C25.9704147,18.709752 26.0061451,18.8847969 25.9966055,19.060396 C25.9918701,19.1428715 25.9800315,19.22618 25.9760853,19.2803306 Z" id="Path" fill="#FF9BBC"></path>
                        <path d="M24.5002031,16.2104103 C24.4260144,16.2520645 24.268166,16.4328441 24.1324164,16.4261794 C23.9966668,16.4195147 23.7843608,16.1079407 23.6991227,16.0596218 C23.6138846,16.0113028 23.2981879,15.9471552 22.9548677,16.1704222 C22.6115475,16.3936891 22.4536992,16.8627163 22.2548102,17.0601576 C22.0559213,17.2575988 21.9485844,17.1709579 21.7607449,17.2267747 C21.5729053,17.2825914 21.2572086,17.52252 21.1877553,18.0123744 C21.118302,18.5022287 21.5634344,19.6185633 21.5460711,19.7293637 C21.5287078,19.8401641 20.1862075,24.1663775 20.4356079,24.9561426 C20.7126318,25.8350479 23.8254014,26.0691449 23.8254014,26.0691449 L23.8033026,26.0858066 L18.8081913,26.0858066 C18.8081913,26.0858066 21.1404008,19.8151715 21.196437,19.6510537 C21.287989,19.381134 20.5910885,18.1465011 21.1175128,17.5250193 C21.6699821,16.8743795 22.0306656,17.1417999 22.1932494,16.9843468 C22.3558332,16.8268936 22.5634038,16.0471255 23.2981879,15.9513207 C23.9193212,15.8680121 23.8688097,16.3495356 24.1229455,16.3961884 C24.2736907,16.4195147 24.3376193,16.2862211 24.5002031,16.2104103 Z" id="Path" fill="#000000" opacity="0.1"></path>
                        <polygon id="Path" fill="#000000" points="24.5372781 16.218424 24.5372781 16.218424 24.5174447 16.2265907"></polygon>
                    </g>
                </g>
            </g>
        </g>
    </g>
</svg>